<?xml version="1.0" encoding="UTF-8"?>
<!DOCTYPE svg PUBLIC "-//W3C//DTD SVG 1.1//EN" "http://www.w3.org/Graphics/SVG/1.1/DTD/svg11.dtd">
<!-- Creator: CorelDRAW 2017 -->
<svg xmlns="http://www.w3.org/2000/svg" xml:space="preserve" width="50.7998mm" height="10.1598mm" version="1.1" style="shape-rendering:geometricPrecision; text-rendering:geometricPrecision; image-rendering:optimizeQuality; fill-rule:evenodd; clip-rule:evenodd"
viewBox="0 0 5079.98 1015.98"
 xmlns:xlink="http://www.w3.org/1999/xlink">
 <defs>
  <style type="text/css">
   <![CDATA[
    .fil9 {fill:#238CC1}
    .fil6 {fill:#40C488}
    .fil8 {fill:#43A0D8}
    .fil3 {fill:#515A71}
    .fil7 {fill:#57B5E9}
    .fil2 {fill:#616B84}
    .fil10 {fill:#7D899E}
    .fil11 {fill:#D2D3D6}
    .fil1 {fill:#DFE1E5}
    .fil13 {fill:#ED335F}
    .fil12 {fill:#F1446C}
    .fil4 {fill:#F55479}
    .fil0 {fill:#F7F7F7}
    .fil14 {fill:#F9B430}
    .fil5 {fill:#FEC63B}
    .fil16 {fill:#373435;fill-rule:nonzero}
    .fil15 {fill:#1C5CBF;fill-rule:nonzero}
   ]]>
  </style>
 </defs>
 <g id="Camada_x0020_1">
  <metadata id="CorelCorpID_0Corel-Layer"/>
  <g id="_2478206604000">
   <g>
    <path class="fil0" d="M954.11 684.31l0 -470.04c-30.08,-56.27 -70.62,-106.1 -119.03,-146.9l-643.18 0c-48.41,40.8 -88.95,90.62 -119.03,146.89l0 470.05c84.07,157.27 249.84,264.29 440.62,264.29 190.78,0 356.55,-107.02 440.62,-264.29z"/>
    <path class="fil1" d="M181.48 98.37l-23.12 0c-33.77,34.17 -62.65,73.16 -85.48,115.89l0 470.05c27.9,52.19 64.79,98.83 108.61,137.87l-0.01 -723.81z"/>
    <path class="fil2" d="M877.29 67.37l-727.6 0c-42.25,0 -76.82,34.57 -76.82,76.81l0 86.37 881.24 0 0 -86.37c0,-42.24 -34.57,-76.81 -76.82,-76.81z"/>
    <path class="fil3" d="M259.16 67.37l-109.47 0c-42.25,0 -76.82,34.57 -76.82,76.81l0 86.37 109.47 0 0 -86.37c0,-42.24 34.57,-76.81 76.82,-76.81z"/>
    <path class="fil4" d="M206.82 148.53c0,-13.99 -11.35,-25.33 -25.34,-25.33 -13.98,0 -25.33,11.34 -25.33,25.33 0,13.99 11.35,25.34 25.33,25.34 13.99,0 25.34,-11.35 25.34,-25.34z"/>
    <path class="fil5" d="M278.99 148.53c0,-13.99 -11.35,-25.33 -25.34,-25.33 -13.99,0 -25.33,11.34 -25.33,25.33 0,13.99 11.34,25.34 25.33,25.34 13.99,0 25.34,-11.35 25.34,-25.34z"/>
    <path class="fil6" d="M351.13 148.53c0,-13.99 -11.34,-25.33 -25.33,-25.33 -13.99,0 -25.34,11.34 -25.34,25.33 0,13.99 11.35,25.34 25.34,25.34 13.99,0 25.33,-11.35 25.33,-25.34z"/>
    <polygon class="fil7" points="278.97,306.85 954.09,306.85 954.09,230.55 278.97,230.55 "/>
    <polygon class="fil8" points="72.87,306.85 283.99,306.85 283.99,230.55 72.87,230.55 "/>
    <polygon class="fil9" points="72.87,306.85 181.48,306.85 181.48,230.55 72.87,230.55 "/>
    <path class="fil10" d="M724.71 166.46l-314.33 0c-9.67,0 -17.5,-7.84 -17.5,-17.5 0,-9.67 7.84,-17.51 17.5,-17.51l314.33 0c9.67,0 17.5,7.84 17.5,17.51 0.01,9.67 -7.83,17.5 -17.5,17.5z"/>
    <path class="fil1" d="M981.42 788.08l-238.57 0c-8.27,0 -14.98,-6.71 -14.98,-14.98l0.01 -366.55c0,-8.28 6.71,-14.98 14.98,-14.98l238.56 0c8.27,0 14.98,6.7 14.98,14.98l0 366.55c-0.01,8.27 -6.71,14.98 -14.98,14.98z"/>
    <path class="fil11" d="M859.59 773.1l0 -366.55c0,-8.28 6.71,-14.98 14.98,-14.98l-131.72 0c-8.27,0 -14.98,6.7 -14.98,14.98l0 366.55c0,8.27 6.71,14.98 14.98,14.98l131.72 0c-8.28,0 -14.98,-6.71 -14.98,-14.98z"/>
    <path class="fil12" d="M727.87 406.55l0 59.26 268.52 0 0 -59.26c0,-8.28 -6.71,-14.98 -14.98,-14.98l-238.56 0c-8.27,0 -14.98,6.7 -14.98,14.98z"/>
    <path class="fil13" d="M874.57 391.57l-131.71 0c-4.14,0 -7.88,1.67 -10.59,4.38 -2.72,2.72 -4.39,6.46 -4.39,10.6l0 59.26 131.71 0 0 -59.26c0,-8.28 6.7,-14.98 14.98,-14.98z"/>
    <path class="fil0" d="M926.27 552.27l-77.98 0c-9.41,0 -17.03,-7.62 -17.03,-17.03 0,-9.4 7.62,-17.03 17.03,-17.03l77.98 0c9.41,0 17.04,7.63 17.04,17.03 0,9.41 -7.63,17.03 -17.04,17.03z"/>
    <path class="fil0" d="M926.27 631.38l-77.98 0c-9.41,0 -17.03,-7.63 -17.03,-17.03 0,-9.41 7.62,-17.04 17.03,-17.04l77.98 0c9.41,0 17.04,7.63 17.04,17.04 0,9.4 -7.63,17.03 -17.04,17.03z"/>
    <path class="fil0" d="M926.27 710.47l-77.98 0c-9.41,0 -17.03,-7.62 -17.03,-17.03 0,-9.4 7.62,-17.03 17.03,-17.03l77.98 0c9.41,0 17.04,7.63 17.04,17.03 0,9.41 -7.63,17.03 -17.04,17.03z"/>
    <path class="fil0" d="M795.43 552.27l-0.42 0c-9.41,0 -17.04,-7.62 -17.04,-17.03 0,-9.4 7.63,-17.03 17.04,-17.03l0.42 0c9.41,0 17.03,7.63 17.03,17.03 -0.01,9.41 -7.62,17.03 -17.03,17.03z"/>
    <path class="fil0" d="M795.43 631.38l-0.42 0c-9.41,0 -17.04,-7.63 -17.04,-17.03 0,-9.41 7.63,-17.04 17.04,-17.04l0.42 0c9.41,0 17.03,7.63 17.03,17.04 -0.01,9.4 -7.62,17.03 -17.03,17.03z"/>
    <path class="fil0" d="M795.43 710.47l-0.42 0c-9.41,0 -17.04,-7.62 -17.04,-17.03 0,-9.4 7.63,-17.03 17.04,-17.03l0.42 0c9.41,0 17.03,7.63 17.03,17.03 -0.01,9.41 -7.62,17.03 -17.03,17.03z"/>
    <path class="fil1" d="M632.77 788.08l-238.56 0c-8.28,0 -14.98,-6.71 -14.98,-14.98l0 -366.55c0,-8.28 6.71,-14.98 14.98,-14.98l238.56 0c8.28,0 14.98,6.7 14.98,14.98l0 366.55c0,8.27 -6.7,14.98 -14.98,14.98z"/>
    <path class="fil11" d="M510.95 773.1l0 -366.55c0,-8.28 6.71,-14.98 14.98,-14.98l-131.72 0c-8.28,0 -14.98,6.7 -14.98,14.98l0 366.55c0,8.27 6.7,14.98 14.98,14.98l131.72 0c-8.27,0 -14.98,-6.71 -14.98,-14.98z"/>
    <path class="fil5" d="M379.23 406.55l0 59.26 268.52 0 0 -59.26c0,-8.28 -6.7,-14.98 -14.98,-14.98l-238.56 0c-8.28,0 -14.98,6.7 -14.98,14.98z"/>
    <path class="fil14" d="M525.92 391.57l-131.71 0c-4.13,0 -7.87,1.67 -10.59,4.38 -2.71,2.72 -4.39,6.46 -4.39,10.6l0 59.26 131.72 0 0 -59.26c0,-8.28 6.7,-14.98 14.97,-14.98z"/>
    <path class="fil1" d="M284.13 788.08l-238.56 0c-8.27,0 -14.98,-6.71 -14.98,-14.98l0 -366.55c0,-8.28 6.71,-14.98 14.98,-14.98l238.56 0c8.27,0 14.98,6.7 14.98,14.98l0 366.55c0,8.27 -6.71,14.98 -14.98,14.98z"/>
    <path class="fil11" d="M162.31 773.1l0 -366.55c0,-8.28 6.7,-14.98 14.98,-14.98l-131.72 0c-8.27,0 -14.98,6.7 -14.98,14.98l0 366.55c0,8.27 6.71,14.98 14.98,14.98l131.72 0c-8.28,0 -14.98,-6.71 -14.98,-14.98z"/>
    <path class="fil8" d="M30.59 406.55l0 59.26 268.52 0 0 -59.26c0,-8.28 -6.71,-14.98 -14.98,-14.98l-238.56 0c-8.27,0 -14.98,6.7 -14.98,14.98z"/>
    <path class="fil9" d="M177.28 391.57l-131.71 0c-4.14,0 -7.88,1.67 -10.59,4.38 -2.71,2.72 -4.39,6.46 -4.39,10.6l0 59.26 131.72 0 0 -59.26c0,-8.28 6.7,-14.98 14.97,-14.98z"/>
    <path class="fil0" d="M579.12 552.27l-77.98 0c-9.41,0 -17.03,-7.62 -17.03,-17.03 0,-9.4 7.62,-17.03 17.03,-17.03l77.98 0c9.41,0 17.04,7.63 17.04,17.03 0,9.41 -7.63,17.03 -17.04,17.03z"/>
    <path class="fil0" d="M579.12 631.38l-77.98 0c-9.41,0 -17.03,-7.63 -17.03,-17.03 0,-9.41 7.62,-17.04 17.03,-17.04l77.98 0c9.41,0 17.04,7.63 17.04,17.04 0,9.4 -7.63,17.03 -17.04,17.03z"/>
    <path class="fil0" d="M579.12 710.47l-77.98 0c-9.41,0 -17.03,-7.62 -17.03,-17.03 0,-9.4 7.62,-17.03 17.03,-17.03l77.98 0c9.41,0 17.04,7.63 17.04,17.03 0,9.41 -7.63,17.03 -17.04,17.03z"/>
    <path class="fil0" d="M448.28 552.27l-0.42 0c-9.41,0 -17.04,-7.62 -17.04,-17.03 0,-9.4 7.63,-17.03 17.04,-17.03l0.42 0c9.41,0 17.03,7.63 17.03,17.03 0,9.41 -7.62,17.03 -17.03,17.03z"/>
    <path class="fil0" d="M448.28 631.38l-0.42 0c-9.41,0 -17.04,-7.63 -17.04,-17.03 0,-9.41 7.63,-17.04 17.04,-17.04l0.42 0c9.41,0 17.03,7.63 17.03,17.04 0,9.4 -7.62,17.03 -17.03,17.03z"/>
    <path class="fil0" d="M448.28 710.47l-0.42 0c-9.41,0 -17.04,-7.62 -17.04,-17.03 0,-9.4 7.63,-17.03 17.04,-17.03l0.42 0c9.41,0 17.03,7.63 17.03,17.03 0,9.41 -7.62,17.03 -17.03,17.03z"/>
    <path class="fil0" d="M230.48 552.27l-77.99 0c-9.4,0 -17.03,-7.62 -17.03,-17.03 0,-9.4 7.63,-17.03 17.03,-17.03l77.99 0c9.4,0 17.03,7.63 17.03,17.03 0,9.41 -7.63,17.03 -17.03,17.03z"/>
    <path class="fil0" d="M230.48 631.38l-77.99 0c-9.4,0 -17.03,-7.63 -17.03,-17.03 0,-9.41 7.63,-17.04 17.03,-17.04l77.99 0c9.4,0 17.03,7.63 17.03,17.04 0,9.4 -7.63,17.03 -17.03,17.03z"/>
    <path class="fil0" d="M230.48 710.47l-77.99 0c-9.4,0 -17.03,-7.62 -17.03,-17.03 0,-9.4 7.63,-17.03 17.03,-17.03l77.99 0c9.4,0 17.03,7.63 17.03,17.03 0,9.41 -7.63,17.03 -17.03,17.03z"/>
    <path class="fil0" d="M99.64 552.27l-0.43 0c-9.4,0 -17.03,-7.62 -17.03,-17.03 0,-9.4 7.63,-17.03 17.03,-17.03l0.43 0c9.4,0 17.03,7.63 17.03,17.03 0,9.41 -7.63,17.03 -17.03,17.03z"/>
    <path class="fil0" d="M99.64 631.38l-0.43 0c-9.4,0 -17.03,-7.63 -17.03,-17.03 0,-9.41 7.63,-17.04 17.03,-17.04l0.43 0c9.4,0 17.03,7.63 17.03,17.04 0,9.4 -7.63,17.03 -17.03,17.03z"/>
    <path class="fil0" d="M99.64 710.47l-0.43 0c-9.4,0 -17.03,-7.62 -17.03,-17.03 0,-9.4 7.63,-17.03 17.03,-17.03l0.43 0c9.4,0 17.03,7.63 17.03,17.03 0,9.41 -7.63,17.03 -17.03,17.03z"/>
   </g>
   <g>
    <path class="fil15" d="M1255.26 347.41l84.98 0 0 258.12 78.12 0 0 -258.12 84.97 0 0 -62.59 -248.07 0 0 62.59zm473.3 258.12l95.48 0 -128.83 -163.55 124.27 -157.16 -91.83 0 -106.9 140.71 0 -140.71 -78.13 0 0 320.71 78.13 0 0 -141.62 107.81 141.62z"/>
    <path class="fil16" d="M1963.83 605.53l52.08 0 0 -217.46 97.31 217.46 36.09 0 96.86 -217.46 0 217.46 52.08 0 0 -317.51 -55.74 0 -111.01 248.98 -111.47 -248.98 -56.2 0 0 317.51zm385.58 -127c0,77.66 52.54,131.11 117.87,131.11 42.03,0 72.18,-20.1 88.17,-41.57l0 37.46 52.54 0 0 -251.72 -52.54 0 0 36.54c-15.53,-20.55 -44.77,-40.66 -87.26,-40.66 -66.24,0 -118.78,51.17 -118.78,128.84zm206.04 0.91c0,54.36 -37,84.97 -76.29,84.97 -38.83,0 -76.3,-31.52 -76.3,-85.88 0,-54.37 37.47,-83.61 76.3,-83.61 39.29,0 76.29,30.61 76.29,84.52zm299.69 126.09l51.63 0 0 -148.48c0,-70.35 -44.32,-107.36 -103.25,-107.36 -30.15,0 -58.02,12.34 -74.93,32.9l0 -28.78 -52.08 0 0 251.72 52.08 0 0 -140.71c0,-46.14 25.13,-69.9 63.51,-69.9 37.92,0 63.04,23.76 63.04,69.9l0 140.71zm100.51 -127c0,77.66 52.54,131.11 117.87,131.11 42.03,0 72.18,-20.1 88.17,-41.57l0 37.46 52.54 0 0 -251.72 -52.54 0 0 36.54c-15.53,-20.55 -44.77,-40.66 -87.26,-40.66 -66.24,0 -118.78,51.17 -118.78,128.84zm206.04 0.91c0,54.36 -37,84.97 -76.29,84.97 -38.83,0 -76.3,-31.52 -76.3,-85.88 0,-54.37 37.47,-83.61 76.3,-83.61 39.29,0 76.29,30.61 76.29,84.52zm103.7 -0.91c0,77.66 52.54,131.11 118.78,131.11 41.12,0 71.27,-20.56 87.26,-42.03l0 42.03c0,50.26 -30.15,74.93 -70.35,74.93 -36.09,0 -63.96,-17.82 -71.73,-43.86l-51.62 0c6.39,55.73 56.19,89.08 123.35,89.08 78.58,0 122.89,-51.62 122.89,-120.15l0 -255.83 -52.54 0 0 36.54c-15.53,-21.47 -46.14,-40.66 -87.26,-40.66 -66.24,0 -118.78,51.17 -118.78,128.84zm206.04 0.91c0,54.36 -37,84.97 -76.29,84.97 -38.83,0 -76.3,-31.52 -76.3,-85.88 0,-54.37 37.47,-83.61 76.3,-83.61 39.29,0 76.29,30.61 76.29,84.52zm227.05 -85.89c38.84,0 69.44,24.67 70.36,63.5l-139.34 0c5.48,-39.74 33.81,-63.5 68.98,-63.5zm117.87 137.06l-56.19 0c-9.6,19.64 -27.41,35.17 -59.39,35.17 -38.38,0 -68.07,-25.12 -71.73,-66.7l192.34 0c1.37,-8.68 1.82,-16.9 1.82,-25.58 0,-74.01 -50.71,-123.81 -122.43,-123.81 -74.47,0 -125.64,50.71 -125.64,129.75 0,79.03 53.45,130.2 125.64,130.2 61.67,0 101.42,-35.18 115.58,-79.03zm414.82 74.92l51.63 0 0 -148.48c0,-70.35 -44.77,-107.36 -103.71,-107.36 -36.55,0 -72.18,19.19 -87.71,49.8 -17.36,-32.89 -50.71,-49.8 -90.46,-49.8 -30.15,0 -57.56,12.34 -74.47,32.9l0 -28.78 -52.08 0 0 251.72 52.08 0 0 -140.71c0,-46.14 25.13,-69.9 63.51,-69.9 37.92,0 63.04,23.76 63.04,69.9l0 140.71 51.63 0 0 -140.71c0,-46.14 25.12,-69.9 63.5,-69.9 37.92,0 63.04,23.76 63.04,69.9l0 140.71zm223.86 -211.98c38.84,0 69.44,24.67 70.36,63.5l-139.34 0c5.48,-39.74 33.81,-63.5 68.98,-63.5zm117.87 137.06l-56.19 0c-9.6,19.64 -27.41,35.17 -59.39,35.17 -38.38,0 -68.07,-25.12 -71.73,-66.7l192.34 0c1.37,-8.68 1.82,-16.9 1.82,-25.58 0,-74.01 -50.71,-123.81 -122.43,-123.81 -74.47,0 -125.64,50.71 -125.64,129.75 0,79.03 53.45,130.2 125.64,130.2 61.67,0 101.42,-35.18 115.58,-79.03zm236.65 74.92l51.63 0 0 -148.48c0,-70.35 -44.32,-107.36 -103.25,-107.36 -30.15,0 -58.02,12.34 -74.93,32.9l0 -28.78 -52.08 0 0 251.72 52.08 0 0 -140.71c0,-46.14 25.13,-69.9 63.51,-69.9 37.92,0 63.04,23.76 63.04,69.9l0 140.71zm126.1 -69.9c0,51.17 27.86,69.9 72.64,69.9l41.11 0 0 -43.4 -31.98 0c-21.93,0 -29.24,-7.77 -29.24,-26.5l0 -139.34 61.22 0 0 -42.48 -61.22 0 0 -62.59 -52.53 0 0 62.59 -29.7 0 0 42.48 29.7 0 0 139.34z"/>
   </g>
  </g>
 </g>
</svg>
